<svg width="176" height="227" viewBox="0 0 176 227" fill="none" xmlns="http://www.w3.org/2000/svg">
<g id="Scanner">
<path id="Vector" d="M101.657 137.457V121.344C101.657 114.991 96.511 109.823 90.186 109.823C83.8609 109.823 78.7151 114.991 78.7151 121.344V135.892C78.7151 153.423 72.2851 170.254 60.6088 183.285L44.51 201.252C43.1575 202.761 43.2795 205.086 44.7824 206.445C46.2849 207.804 48.5995 207.681 49.9526 206.172L66.0513 188.205C78.9392 173.821 86.0369 155.243 86.0369 135.892V121.344C86.0369 119.046 87.8981 117.177 90.186 117.177C92.4738 117.177 94.335 119.046 94.335 121.344V137.457C94.335 159.031 86.3781 179.703 71.9298 195.667L56.2371 213.005C54.8772 214.507 54.9876 216.833 56.4837 218.199C57.1851 218.84 58.0661 219.155 58.9448 219.155C59.9405 219.155 60.9324 218.75 61.6548 217.952L77.3469 200.613C93.0234 183.293 101.657 160.864 101.657 137.457Z" fill="url(#paint0_linear_153_653)"/>
<path id="Vector_2" d="M117.276 121.344C117.276 106.34 105.123 94.1338 90.1853 94.1338C75.2474 94.1338 63.0946 106.34 63.0946 121.344V135.892C63.0946 149.541 58.0884 162.645 48.9982 172.79L37.5532 185.563C36.2006 187.072 36.3226 189.397 37.8256 190.756C39.3285 192.115 41.6427 191.991 42.9958 190.483L54.4407 177.71C64.743 166.212 70.4169 151.361 70.4169 135.892V121.344C70.4169 110.395 79.2851 101.488 90.1858 101.488C101.087 101.488 109.955 110.395 109.955 121.344V137.457C109.955 162.941 100.555 187.362 83.4873 206.22L70.2471 220.849C68.8867 222.352 68.997 224.678 70.4931 226.044C71.1945 226.685 72.0756 227 72.9542 227C73.9499 227 74.9418 226.594 75.6642 225.796L88.905 211.167C107.2 190.952 117.276 164.775 117.276 137.457V121.344Z" fill="url(#paint1_linear_153_653)"/>
<path id="Vector_3" d="M132.896 121.344C132.896 97.6893 113.736 78.4448 90.1853 78.4448C66.6344 78.4448 47.4747 97.6893 47.4747 121.344V135.892C47.4747 145.658 43.8924 155.035 37.3877 162.294L27.0825 173.795C25.7299 175.305 25.8519 177.63 27.3549 178.989C28.8573 180.347 31.1725 180.224 32.525 178.715L42.8303 167.214C50.547 158.602 54.7965 147.478 54.7965 135.892V121.344C54.7965 101.744 70.6717 85.799 90.1853 85.799C109.699 85.799 125.574 101.744 125.574 121.344V137.457C125.574 166.853 114.732 195.022 95.0446 216.773L91.3802 220.822C90.0203 222.325 90.1306 224.65 91.6267 226.016C92.3282 226.657 93.2097 226.972 94.0878 226.972C95.0836 226.972 96.0755 226.567 96.7979 225.769L100.462 221.72C121.377 198.612 132.895 168.687 132.895 137.457V121.344H132.896Z" fill="url(#paint2_linear_153_653)"/>
<path id="Vector_4" opacity="0.2" d="M31.8555 121.345C31.8555 123.376 33.4946 125.022 35.5164 125.022C37.5382 125.022 39.1773 123.376 39.1773 121.345C39.1773 108.963 43.6529 97.0018 51.7801 87.6649C59.8316 78.4148 70.8822 72.3657 82.8958 70.632C84.8971 70.3433 86.2863 68.4792 85.9988 66.4696C85.7113 64.4594 83.854 63.066 81.8547 63.3528C68.1092 65.3365 55.4708 72.2514 46.2677 82.8248C36.9739 93.5017 31.8555 107.182 31.8555 121.345Z" fill="url(#paint3_linear_153_653)"/>
<path id="Vector_5" d="M39.1767 135.892C39.1767 133.861 37.5376 132.215 35.5158 132.215C33.494 132.215 31.8549 133.861 31.8549 135.892C31.8549 141.777 29.6969 147.425 25.7782 151.798L16.6118 162.029C15.2592 163.538 15.3813 165.863 16.8842 167.222C17.5842 167.855 18.4594 168.166 19.3321 168.166C20.3337 168.166 21.332 167.755 22.0544 166.949L31.2208 156.718C36.3509 150.992 39.1767 143.596 39.1767 135.892Z" fill="url(#paint4_linear_153_653)"/>
<path id="Vector_6" d="M141.331 168.717C139.374 168.205 137.375 169.379 136.862 171.343C135.511 176.53 133.83 181.686 131.864 186.668C131.119 188.556 132.039 190.693 133.919 191.441C134.362 191.617 134.818 191.7 135.267 191.7C136.724 191.7 138.102 190.82 138.671 189.377C140.745 184.119 142.52 178.678 143.946 173.205C144.457 171.241 143.286 169.231 141.331 168.717Z" fill="url(#paint5_linear_153_653)"/>
<path id="Vector_7" d="M129.144 77.774C127.64 76.4154 125.325 76.54 123.974 78.05C122.622 79.5601 122.745 81.885 124.248 83.2426C135.017 92.9659 141.193 106.853 141.193 121.344V137.457C141.193 143.572 140.773 149.734 139.944 155.773C139.669 157.785 141.069 159.641 143.071 159.918C143.241 159.941 143.409 159.952 143.576 159.952C145.376 159.952 146.945 158.618 147.197 156.776C148.071 150.406 148.514 143.906 148.514 137.456V121.344C148.515 104.77 141.454 88.8897 129.144 77.774Z" fill="url(#paint6_linear_153_653)"/>
<path id="Vector_8" opacity="0.2" d="M112.03 75.0502C112.538 75.2934 113.074 75.4081 113.601 75.4081C114.97 75.4081 116.282 74.6339 116.909 73.3107C117.779 71.4775 117.003 69.283 115.178 68.4103C109.903 65.8878 104.297 64.1861 98.5156 63.3521C96.5113 63.0653 94.6589 64.4591 94.3714 66.4688C94.0839 68.4785 95.4731 70.3425 97.4744 70.6313C102.525 71.3603 107.422 72.8469 112.03 75.0502Z" fill="url(#paint7_linear_153_653)"/>
<path id="Vector_9" opacity="0.2" d="M90.1853 47.0669C88.8156 47.0669 87.4303 47.1051 86.067 47.1806C84.0481 47.2924 82.5018 49.027 82.6131 51.0543C82.7249 53.0822 84.4499 54.6437 86.4702 54.5231C87.6998 54.4549 88.9494 54.4206 90.1848 54.4206C126.924 54.4206 156.813 84.442 156.813 121.344V137.457C156.813 139.488 158.452 141.134 160.474 141.134C162.496 141.134 164.135 139.488 164.135 137.457V121.344C164.136 80.3878 130.961 47.0669 90.1853 47.0669Z" fill="url(#paint8_linear_153_653)"/>
<path id="Vector_10" opacity="0.2" d="M50.1566 67.0178C50.8775 67.0178 51.6063 66.804 52.2433 66.3594C58.3341 62.1052 65.0233 58.9292 72.1259 56.9175C74.0721 56.3665 75.205 54.3347 74.6564 52.3805C74.1077 50.4262 72.0844 49.2897 70.1393 49.8389C62.2513 52.0726 54.824 55.5992 48.0635 60.3206C46.4034 61.4801 45.9934 63.7717 47.1478 65.4386C47.859 66.4672 48.9983 67.0178 50.1566 67.0178Z" fill="url(#paint9_linear_153_653)"/>
<path id="Vector_11" opacity="0.2" d="M23.5572 135.892V121.345C23.5572 104.239 30.0068 87.9477 41.7178 75.4715C43.1045 73.9938 43.0367 71.6669 41.5655 70.2736C40.0943 68.8802 37.7772 68.9493 36.3904 70.4265C23.3932 84.2726 16.2354 102.356 16.2354 121.345V135.892C16.2354 137.894 15.5013 139.815 14.1687 141.303L9.65458 146.34C8.30199 147.85 8.42402 150.175 9.92695 151.533C10.6264 152.166 11.5021 152.477 12.3749 152.477C13.3765 152.477 14.3742 152.067 15.0971 151.261L19.6113 146.223C22.1558 143.382 23.5572 139.714 23.5572 135.892Z" fill="url(#paint10_linear_153_653)"/>
<path id="Vector_12" opacity="0.2" d="M175.106 92.7141C171.091 80.7287 164.71 69.9008 156.14 60.5311C154.772 59.0357 152.456 58.9367 150.967 60.3109C149.478 61.6852 149.38 64.0111 150.748 65.5069C158.62 74.1133 164.481 84.0562 168.167 95.0591C168.682 96.5951 170.108 97.5644 171.636 97.5644C172.023 97.5644 172.417 97.5021 172.804 97.3712C174.72 96.7236 175.751 94.6384 175.106 92.7141Z" fill="url(#paint11_linear_153_653)"/>
<path id="Vector_13" opacity="0.2" d="M119.117 36.1935C117.205 35.536 115.122 36.5602 114.468 38.4821C113.813 40.4035 114.833 42.4941 116.746 43.151C124.819 45.9255 132.398 49.9449 139.273 55.0987C139.931 55.5914 140.699 55.8287 141.46 55.8287C142.576 55.8287 143.678 55.3183 144.397 54.3505C145.607 52.7233 145.273 50.419 143.653 49.2045C136.166 43.5938 127.911 39.2156 119.117 36.1935Z" fill="url(#paint12_linear_153_653)"/>
<path id="Vector_14" opacity="0.2" d="M33.3026 61.7302C48.7024 46.8997 68.9037 38.7321 90.1853 38.7321C94.1371 38.7321 98.1109 39.018 101.996 39.5808C103.999 39.874 105.854 38.4767 106.142 36.4666C106.431 34.4564 105.044 32.5924 103.042 32.3021C98.8114 31.6893 94.4857 31.3779 90.1853 31.3779C67.0059 31.3779 45.0048 40.2721 28.2354 56.422C11.5183 72.5218 1.7417 94.127 0.706886 117.258C0.616096 119.287 2.18003 121.006 4.19939 121.096C4.25552 121.099 4.31117 121.1 4.36682 121.1C6.31295 121.1 7.93303 119.561 8.02138 117.588C8.97077 96.3534 17.9493 76.5161 33.3026 61.7302Z" fill="url(#paint13_linear_153_653)"/>
<path id="Vector_15" opacity="0.2" d="M90.1861 15.689C81.9994 15.689 73.8414 16.6421 65.9392 18.5218C63.9716 18.9895 62.7547 20.9713 63.2204 22.9471C63.6865 24.9229 65.6595 26.1457 67.6266 25.6775C74.9768 23.9301 82.5666 23.0432 90.1861 23.0432C117.031 23.0432 142.089 33.7857 160.744 53.291C161.463 54.0426 162.423 54.4211 163.385 54.4211C164.297 54.4211 165.211 54.0809 165.921 53.396C167.379 51.9889 167.425 49.661 166.024 48.197C156.305 38.034 144.887 30.039 132.089 24.4356C118.834 18.6316 104.736 15.689 90.1861 15.689Z" fill="url(#paint14_linear_153_653)"/>
<path id="Vector_16" opacity="0.2" d="M7.95285 61.4834C8.62255 62.0099 9.4177 62.2654 10.2075 62.2654C11.2945 62.2654 12.3703 61.7815 13.0923 60.8553C23.5259 47.4697 37.2616 36.9703 52.8141 30.4912C54.6816 29.7132 55.5681 27.5618 54.7934 25.686C54.0188 23.8102 51.8759 22.9189 50.0094 23.6979C33.2956 30.6604 18.5363 41.9413 7.32757 56.3207C6.0809 57.9205 6.36109 60.2317 7.95285 61.4834Z" fill="url(#paint15_linear_153_653)"/>
<path id="Vector_17" opacity="0.2" d="M39.4241 18.9861C39.9582 18.9861 40.5005 18.8685 41.013 18.6194C56.4269 11.1441 72.9708 7.35421 90.1853 7.35421C99.156 7.35421 108.091 8.4142 116.74 10.5048C118.704 10.9784 120.682 9.76443 121.155 7.79007C121.628 5.81571 120.418 3.82958 118.452 3.3545C109.243 1.12863 99.7325 0 90.1853 0C71.8593 0 54.2445 4.03599 37.8299 11.9967C36.0093 12.8797 35.2458 15.0781 36.1249 16.9068C36.7561 18.2203 38.0633 18.9861 39.4241 18.9861Z" fill="url(#paint16_linear_153_653)"/>
<path id="Vector_18" opacity="0.2" d="M132.042 15.3865C135.816 16.8961 139.552 18.6317 143.145 20.5443C143.691 20.8355 144.278 20.9733 144.856 20.9733C146.168 20.9733 147.436 20.2629 148.093 19.0171C149.04 17.2226 148.36 14.9973 146.573 14.0461C142.748 12.01 138.77 10.1621 134.751 8.55448C132.872 7.80288 130.743 8.72363 129.995 10.6097C129.247 12.4963 130.164 14.6354 132.042 15.3865Z" fill="url(#paint17_linear_153_653)"/>
</g>
<defs>
<linearGradient id="paint0_linear_153_653" x1="72.6136" y1="109.823" x2="72.6136" y2="219.155" gradientUnits="userSpaceOnUse">
<stop stop-color="white"/>
<stop offset="1" stop-color="#EDE5EE"/>
</linearGradient>
<linearGradient id="paint1_linear_153_653" x1="76.9448" y1="94.1338" x2="76.9448" y2="227" gradientUnits="userSpaceOnUse">
<stop stop-color="white"/>
<stop offset="1" stop-color="#EDE5EE"/>
</linearGradient>
<linearGradient id="paint2_linear_153_653" x1="79.5193" y1="78.4448" x2="79.5193" y2="226.972" gradientUnits="userSpaceOnUse">
<stop stop-color="white"/>
<stop offset="1" stop-color="#EDE5EE"/>
</linearGradient>
<linearGradient id="paint3_linear_153_653" x1="58.946" y1="63.3154" x2="58.946" y2="125.022" gradientUnits="userSpaceOnUse">
<stop stop-color="white"/>
<stop offset="1" stop-color="#EDE5EE"/>
</linearGradient>
<linearGradient id="paint4_linear_153_653" x1="27.4244" y1="132.215" x2="27.4244" y2="168.166" gradientUnits="userSpaceOnUse">
<stop stop-color="white"/>
<stop offset="1" stop-color="#EDE5EE"/>
</linearGradient>
<linearGradient id="paint5_linear_153_653" x1="137.836" y1="168.597" x2="137.836" y2="191.7" gradientUnits="userSpaceOnUse">
<stop stop-color="white"/>
<stop offset="1" stop-color="#EDE5EE"/>
</linearGradient>
<linearGradient id="paint6_linear_153_653" x1="135.775" y1="76.8311" x2="135.775" y2="159.952" gradientUnits="userSpaceOnUse">
<stop stop-color="white"/>
<stop offset="1" stop-color="#EDE5EE"/>
</linearGradient>
<linearGradient id="paint7_linear_153_653" x1="105.8" y1="63.3147" x2="105.8" y2="75.4081" gradientUnits="userSpaceOnUse">
<stop stop-color="white"/>
<stop offset="1" stop-color="#EDE5EE"/>
</linearGradient>
<linearGradient id="paint8_linear_153_653" x1="123.371" y1="47.0669" x2="123.371" y2="141.134" gradientUnits="userSpaceOnUse">
<stop stop-color="white"/>
<stop offset="1" stop-color="#EDE5EE"/>
</linearGradient>
<linearGradient id="paint9_linear_153_653" x1="60.6434" y1="49.7007" x2="60.6434" y2="67.0178" gradientUnits="userSpaceOnUse">
<stop stop-color="white"/>
<stop offset="1" stop-color="#EDE5EE"/>
</linearGradient>
<linearGradient id="paint10_linear_153_653" x1="25.7149" y1="69.272" x2="25.7149" y2="152.477" gradientUnits="userSpaceOnUse">
<stop stop-color="white"/>
<stop offset="1" stop-color="#EDE5EE"/>
</linearGradient>
<linearGradient id="paint11_linear_153_653" x1="162.541" y1="59.3416" x2="162.541" y2="97.5644" gradientUnits="userSpaceOnUse">
<stop stop-color="white"/>
<stop offset="1" stop-color="#EDE5EE"/>
</linearGradient>
<linearGradient id="paint12_linear_153_653" x1="129.697" y1="35.9944" x2="129.697" y2="55.8287" gradientUnits="userSpaceOnUse">
<stop stop-color="white"/>
<stop offset="1" stop-color="#EDE5EE"/>
</linearGradient>
<linearGradient id="paint13_linear_153_653" x1="53.4418" y1="31.3779" x2="53.4418" y2="121.1" gradientUnits="userSpaceOnUse">
<stop stop-color="white"/>
<stop offset="1" stop-color="#EDE5EE"/>
</linearGradient>
<linearGradient id="paint14_linear_153_653" x1="115.083" y1="15.689" x2="115.083" y2="54.4211" gradientUnits="userSpaceOnUse">
<stop stop-color="white"/>
<stop offset="1" stop-color="#EDE5EE"/>
</linearGradient>
<linearGradient id="paint15_linear_153_653" x1="30.8113" y1="23.416" x2="30.8113" y2="62.2654" gradientUnits="userSpaceOnUse">
<stop stop-color="white"/>
<stop offset="1" stop-color="#EDE5EE"/>
</linearGradient>
<linearGradient id="paint16_linear_153_653" x1="78.5088" y1="0" x2="78.5088" y2="18.9861" gradientUnits="userSpaceOnUse">
<stop stop-color="white"/>
<stop offset="1" stop-color="#EDE5EE"/>
</linearGradient>
<linearGradient id="paint17_linear_153_653" x1="139.127" y1="8.29248" x2="139.127" y2="20.9733" gradientUnits="userSpaceOnUse">
<stop stop-color="white"/>
<stop offset="1" stop-color="#EDE5EE"/>
</linearGradient>
</defs>
</svg>
