<svg xmlns="http://www.w3.org/2000/svg" width="355" height="115" viewBox="0 0 355 115" fill="none">
    <g filter="url(#filter0_bii_27_3081)">
        <path fill-rule="evenodd" clip-rule="evenodd" d="M113.941 32.7413C125.332 32.7154 134.87 24.6679 142.381 16.1028C150.792 6.50981 163.178 0.433804 177.001 0.402376C190.825 0.370947 203.238 6.39056 211.693 15.9453C219.242 24.4761 228.817 32.4801 240.208 32.4542L328.072 32.2545C342.432 32.2218 354.099 43.8359 354.131 58.1953L354.198 87.5407C354.231 101.9 342.617 113.567 328.257 113.6L26.2581 114.286C11.8987 114.319 0.231682 102.705 0.199035 88.3456L0.132314 59.0002C0.0996664 44.6408 11.7138 32.9737 26.0731 32.9411L113.941 32.7413Z"/>
    </g>
</svg>
