<?xml version="1.0" encoding="utf-8"?>
<svg version="1.1" id="Ebene_1" xmlns="http://www.w3.org/2000/svg" xmlns:xlink="http://www.w3.org/1999/xlink" x="0px" y="0px"
	 viewBox="0 0 32 32" style="enable-background:new 0 0 32 32;" xml:space="preserve">
<g>
	<path fill="#ffffff" d="M29.5,16.1c0-7.5-6-13.5-13.5-13.5c-1.6,0-3.2,0.3-4.6,0.8l-0.8-1.3c-0.5,0.2-1,0.4-1.5,0.7l0.7,1.3
		C9.3,4.3,8.9,4.6,8.4,4.9L7.8,3.5c-0.5,0.3-0.9,0.7-1.3,1l0.7,1.2c-2.9,2.5-4.7,6.2-4.7,10.4c0,7.5,6,13.5,13.5,13.5
		c1.7,0,3.3-0.3,4.8-0.9l0.7,1.2c0.5-0.2,1-0.4,1.5-0.7L22.3,28c0.5-0.2,0.9-0.5,1.4-0.8l0.7,1.2c0.5-0.3,0.9-0.6,1.3-1L25,26.1
		C27.7,23.8,29.5,20.1,29.5,16.1z M16,28.1c-6.6,0-12-5.4-12-12s5.4-12,12-12s12,5.4,12,12S22.6,28.1,16,28.1z"/>
	<path fill="#ffffff" d="M18.7,8.7h-6l5,8.5h-1.9l-4.9-8.5H9l5,8.5h-1.4v7.7h1.6v-6h4.4c2,0,5.3-1.1,5.3-5.1
		C23.8,8.8,18.7,8.7,18.7,8.7z M19.5,17.1l-4-6.8h3.2c0.1,0,3.5,0.1,3.5,3.4C22.2,16,20.8,16.9,19.5,17.1z"/>
</g>
</svg>
