<?xml version="1.0" encoding="utf-8"?>
<!-- Generator: Adobe Illustrator 25.1.0, SVG Export Plug-In . SVG Version: 6.00 Build 0)  -->
<svg version="1.1" id="Ebene_1" xmlns="http://www.w3.org/2000/svg" xmlns:xlink="http://www.w3.org/1999/xlink" x="0px" y="0px"
	 viewBox="0 0 93.1 33.1" style="enable-background:new 0 0 93.1 33.1;" xml:space="preserve">
<style type="text/css">
	.st0{fill:#FFFFFF;}
</style>
<g>
	<path class="st0" d="M19,7h-7.1l5.9,10.1h-2.3L9.7,7H7.5l5.9,10.1h-1.7v9.1h1.9V19h5.3c2.3,0,6.3-1.3,6.3-6C25.1,7.1,19.1,7,19,7z
		 M20,16.9l-4.7-8H19c0.2,0,4.1,0.1,4.1,4.1C23.2,15.7,21.5,16.6,20,16.9z"/>
	<rect x="71.6" y="17.3" class="st0" width="1.9" height="8.8"/>
	<rect x="65.1" y="7" class="st0" width="1.9" height="19.2"/>
	<path class="st0" d="M60.2,13c0-5.9-6-6-6.1-6H47L53,17.1h-6.2v9.1h1.9V19h5.3c0,0,0.1,0,0.2,0l4.2,7.2h2.2l-4.4-7.5
		C57.8,18.1,60.2,16.7,60.2,13z M50.4,8.9h3.8c0.2,0,4.2,0.1,4.2,4.1c0,2.6-1.6,3.6-3.2,3.9L50.4,8.9z"/>
	<polygon class="st0" points="36.1,14.5 36.1,14.5 35.2,16.1 29.8,7 27.6,7 34.2,18.3 34.2,26.2 36.1,26.2 36.2,18.2 42.8,7 40.5,7 
			"/>
	<polygon class="st0" points="84.8,25.4 84.8,7.1 82.9,7.1 82.9,22.1 74.1,7.1 71.9,7.1 83.1,26.2 84.8,26.2 84.8,25.4 	"/>
</g>
<g>
</g>
<g>
</g>
<g>
</g>
<g>
</g>
<g>
</g>
<g>
</g>
</svg>
