<svg width="78" height="40" viewBox="0 0 78 40" fill="none" xmlns="http://www.w3.org/2000/svg">
<path d="M3.75749 5.71491L0 3.77273V36.5C0 38.1569 1.34315 39.5 3.00001 39.5H76.5177C76.7938 39.5 77.0177 39.2761 77.0177 39V12.9663C77.0177 12.4809 76.8999 12.0027 76.6744 11.5728L74.6849 7.78006C74.1084 6.6811 72.8327 6.14651 71.645 6.50624C70.2281 6.9354 68.7407 6.08977 68.3849 4.6527L68.1377 3.65434C67.4414 0.842464 63.4628 0.791224 62.6943 3.58424L62.3177 4.953C61.9337 6.34886 60.2119 6.84836 59.1405 5.87477C58.0752 4.90678 56.3638 5.39418 55.9684 6.7782L53.124 16.7336C52.6192 18.5004 50.1688 18.6391 49.4678 16.9406C48.8808 15.5183 46.9504 15.3138 46.0784 16.5815L44.4486 18.951C43.3481 20.5509 41.0406 20.6996 39.7438 19.2542L30.3456 8.77892C29.0332 7.31607 26.6921 7.48922 25.6092 9.12924L22.2897 14.1563C20.8383 16.3543 17.4616 15.7488 16.8643 13.1835L14.3763 2.49646C13.6965 -0.423657 9.6261 -0.650354 8.62622 2.17621L7.96326 4.05034C7.35637 5.76597 5.37411 6.55051 3.75749 5.71491Z" fill="url(#paint0_linear_51_2212)"/>
<defs>
<linearGradient id="paint0_linear_51_2212" x1="62.9764" y1="-23" x2="63.5" y2="27" gradientUnits="userSpaceOnUse">
<stop stop-color="#5ED5A8"/>
<stop offset="1" stop-color="#0B0B0B" stop-opacity="0"/>
</linearGradient>
</defs>
</svg>
