<svg width="18" height="16" viewBox="0 0 18 16" fill="none" xmlns="http://www.w3.org/2000/svg">
<path id="Vector" d="M16.7083 5.62922C14.7833 2.60422 11.9667 0.862549 8.99999 0.862549C7.51666 0.862549 6.07499 1.29588 4.75832 2.10422C3.44166 2.92088 2.25832 4.11255 1.29166 5.62922C0.458323 6.93755 0.458323 9.06255 1.29166 10.3709C3.21666 13.4042 6.03332 15.1375 8.99999 15.1375C10.4833 15.1375 11.925 14.7042 13.2417 13.8959C14.5583 13.0792 15.7417 11.8876 16.7083 10.3709C17.5417 9.07088 17.5417 6.93755 16.7083 5.62922ZM8.99999 11.3709C7.13332 11.3709 5.63332 9.86255 5.63332 8.00422C5.63332 6.14588 7.13332 4.63755 8.99999 4.63755C10.8667 4.63755 12.3667 6.14588 12.3667 8.00422C12.3667 9.86255 10.8667 11.3709 8.99999 11.3709Z" fill="#FAFAFA"/>
</svg>
