<svg width="24" height="24" viewBox="0 0 24 24" fill="none" xmlns="http://www.w3.org/2000/svg">
<g id="life-buoy 1">
<g id="Group">
<path id="Vector" d="M18.9645 17.4272L18.6109 17.7808L18.9645 17.4272L17.1083 15.571C16.865 15.3277 16.8107 14.8772 17.0202 14.4412C17.7437 12.9353 17.7438 11.0647 17.0202 9.55873C16.8107 9.12269 16.865 8.67216 17.1083 8.4289L18.9645 6.57268C19.2603 6.27688 19.6756 6.33116 19.8576 6.59142C22.0466 9.72056 22.0469 14.279 19.8576 17.4085C19.6756 17.6688 19.2603 17.723 18.9645 17.4272Z" stroke="white"/>
<path id="Vector_2" d="M9.55873 6.97927C9.12269 7.18878 8.67216 7.13446 8.4289 6.8912L6.57268 5.03498C6.27688 4.73918 6.33116 4.32391 6.59142 4.14184C9.72056 1.9529 14.2789 1.95254 17.4084 4.14183C17.6687 4.3239 17.723 4.73918 17.4272 5.03498L15.571 6.8912C15.3277 7.13447 14.8772 7.18879 14.4411 6.97929C12.9352 6.25573 11.0647 6.25566 9.55873 6.97927Z" stroke="white"/>
<path id="Vector_3" d="M6.97927 14.4414C7.18878 14.8774 7.13446 15.3279 6.8912 15.5712L5.03498 17.4274C4.73918 17.7232 4.32391 17.669 4.14184 17.4087C1.9529 14.2796 1.95254 9.7212 4.14183 6.59166C4.3239 6.3314 4.73918 6.27713 5.03498 6.57293L6.8912 8.42914C7.13446 8.67241 7.18878 9.12294 6.97928 9.55898C6.25573 11.0649 6.25566 12.9354 6.97927 14.4414Z" stroke="white"/>
<path id="Vector_4" d="M14.4412 17.0207C14.8772 16.8112 15.3277 16.8655 15.571 17.1088L17.4272 18.965C17.723 19.2608 17.6687 19.676 17.4085 19.8581C14.2793 22.0471 9.72095 22.0474 6.59142 19.8581C6.33115 19.676 6.27688 19.2608 6.57268 18.965L8.42892 17.1087C8.67218 16.8655 9.1227 16.8112 9.55872 17.0207C11.0646 17.7442 12.9352 17.7443 14.4412 17.0207Z" stroke="#FAFAFA"/>
</g>
</g>
</svg>
