<svg width="24" height="24" viewBox="0 0 24 24" fill="none" xmlns="http://www.w3.org/2000/svg">
<g id="card-coin">
<path id="Vector" d="M2.00122 17.0602H12.0012" stroke="white" stroke-width="1.5" stroke-miterlimit="10" stroke-linecap="round" stroke-linejoin="round"/>
<path id="Vector_2" d="M4.22119 13.5002H9.78125C11.5612 13.5002 12.0012 13.9402 12.0012 15.7002V19.8102C12.0012 21.5702 11.5612 22.0102 9.78125 22.0102H4.22119C2.44119 22.0102 2.00122 21.5702 2.00122 19.8102V15.7002C2.00122 13.9402 2.44119 13.5002 4.22119 13.5002Z" stroke="white" stroke-width="1.5" stroke-linecap="round" stroke-linejoin="round"/>
<g id="Group">
<path id="Vector_3" d="M22.0012 15.0002C22.0012 18.8702 18.8712 22.0002 15.0012 22.0002L16.0512 20.2502" stroke="white" stroke-width="1.5" stroke-linecap="round" stroke-linejoin="round"/>
<path id="Vector_4" d="M2.00122 9.00018C2.00122 5.13018 5.13122 2.00018 9.00122 2.00018L7.95123 3.75018" stroke="white" stroke-width="1.5" stroke-linecap="round" stroke-linejoin="round"/>
</g>
<path id="Vector_5" d="M18.5012 11.0002C20.9865 11.0002 23.0012 8.98546 23.0012 6.50018C23.0012 4.0149 20.9865 2.00018 18.5012 2.00018C16.0159 2.00018 14.0012 4.0149 14.0012 6.50018C14.0012 8.98546 16.0159 11.0002 18.5012 11.0002Z" stroke="white" stroke-width="1.5" stroke-linecap="round" stroke-linejoin="round"/>
</g>
</svg>
